<mxfile host="app.diagrams.net" modified="2021-04-10T07:58:05.106Z" agent="5.0 (Windows)" etag="MVpDasKpkeBmbcgMVv0J" version="14.4.6" type="github">
  <diagram id="rFE8vZMOYVn4h3HElNzp" name="Page-1">
    <mxGraphModel dx="1422" dy="735" grid="1" gridSize="10" guides="1" tooltips="1" connect="1" arrows="1" fold="1" page="1" pageScale="1" pageWidth="827" pageHeight="1169" math="0" shadow="0">
      <root>
        <mxCell id="0" />
        <mxCell id="1" parent="0" />
        <mxCell id="DwexcD54_K2qV1zHNieI-9" value="Personaggio: struct" style="rounded=0;whiteSpace=wrap;html=1;" vertex="1" parent="1">
          <mxGeometry x="274" y="10" width="240" height="80" as="geometry" />
        </mxCell>
        <mxCell id="DwexcD54_K2qV1zHNieI-29" style="edgeStyle=orthogonalEdgeStyle;rounded=0;orthogonalLoop=1;jettySize=auto;html=1;entryX=0;entryY=0.5;entryDx=0;entryDy=0;" edge="1" parent="1" source="DwexcD54_K2qV1zHNieI-11" target="DwexcD54_K2qV1zHNieI-9">
          <mxGeometry relative="1" as="geometry" />
        </mxCell>
        <mxCell id="DwexcD54_K2qV1zHNieI-11" value="Nome: char*" style="rounded=1;whiteSpace=wrap;html=1;" vertex="1" parent="1">
          <mxGeometry x="40" y="20" width="120" height="60" as="geometry" />
        </mxCell>
        <mxCell id="DwexcD54_K2qV1zHNieI-31" style="edgeStyle=orthogonalEdgeStyle;rounded=0;orthogonalLoop=1;jettySize=auto;html=1;entryX=0;entryY=0.5;entryDx=0;entryDy=0;" edge="1" parent="1" source="DwexcD54_K2qV1zHNieI-12" target="DwexcD54_K2qV1zHNieI-9">
          <mxGeometry relative="1" as="geometry">
            <Array as="points">
              <mxPoint x="240" y="210" />
              <mxPoint x="240" y="50" />
            </Array>
          </mxGeometry>
        </mxCell>
        <mxCell id="DwexcD54_K2qV1zHNieI-12" value="Salute: int" style="rounded=1;whiteSpace=wrap;html=1;" vertex="1" parent="1">
          <mxGeometry x="40" y="180" width="120" height="60" as="geometry" />
        </mxCell>
        <mxCell id="DwexcD54_K2qV1zHNieI-30" style="edgeStyle=orthogonalEdgeStyle;rounded=0;orthogonalLoop=1;jettySize=auto;html=1;entryX=0;entryY=0.5;entryDx=0;entryDy=0;" edge="1" parent="1" source="DwexcD54_K2qV1zHNieI-13" target="DwexcD54_K2qV1zHNieI-9">
          <mxGeometry relative="1" as="geometry">
            <mxPoint x="260" y="70" as="targetPoint" />
            <Array as="points">
              <mxPoint x="100" y="90" />
              <mxPoint x="240" y="90" />
              <mxPoint x="240" y="50" />
            </Array>
          </mxGeometry>
        </mxCell>
        <mxCell id="DwexcD54_K2qV1zHNieI-13" value="Mana: int" style="rounded=1;whiteSpace=wrap;html=1;" vertex="1" parent="1">
          <mxGeometry x="40" y="100" width="120" height="60" as="geometry" />
        </mxCell>
        <mxCell id="DwexcD54_K2qV1zHNieI-32" style="edgeStyle=orthogonalEdgeStyle;rounded=0;orthogonalLoop=1;jettySize=auto;html=1;entryX=1;entryY=0.5;entryDx=0;entryDy=0;" edge="1" parent="1" source="DwexcD54_K2qV1zHNieI-14" target="DwexcD54_K2qV1zHNieI-9">
          <mxGeometry relative="1" as="geometry" />
        </mxCell>
        <mxCell id="DwexcD54_K2qV1zHNieI-14" value="Inventario: Struct" style="rounded=1;whiteSpace=wrap;html=1;" vertex="1" parent="1">
          <mxGeometry x="630" y="20" width="120" height="60" as="geometry" />
        </mxCell>
        <mxCell id="DwexcD54_K2qV1zHNieI-33" style="edgeStyle=orthogonalEdgeStyle;rounded=0;orthogonalLoop=1;jettySize=auto;html=1;entryX=0.5;entryY=1;entryDx=0;entryDy=0;" edge="1" parent="1" source="DwexcD54_K2qV1zHNieI-21" target="DwexcD54_K2qV1zHNieI-14">
          <mxGeometry relative="1" as="geometry" />
        </mxCell>
        <mxCell id="DwexcD54_K2qV1zHNieI-21" value="Arma" style="rounded=1;whiteSpace=wrap;html=1;" vertex="1" parent="1">
          <mxGeometry x="540" y="120" width="100" height="50" as="geometry" />
        </mxCell>
        <mxCell id="DwexcD54_K2qV1zHNieI-36" style="edgeStyle=orthogonalEdgeStyle;rounded=0;orthogonalLoop=1;jettySize=auto;html=1;" edge="1" parent="1" source="DwexcD54_K2qV1zHNieI-22">
          <mxGeometry relative="1" as="geometry">
            <mxPoint x="690" y="80" as="targetPoint" />
            <Array as="points">
              <mxPoint x="690" y="145" />
            </Array>
          </mxGeometry>
        </mxCell>
        <mxCell id="DwexcD54_K2qV1zHNieI-22" value="Incantesimo" style="rounded=1;whiteSpace=wrap;html=1;" vertex="1" parent="1">
          <mxGeometry x="700" y="120" width="100" height="50" as="geometry" />
        </mxCell>
        <mxCell id="DwexcD54_K2qV1zHNieI-35" style="edgeStyle=orthogonalEdgeStyle;rounded=0;orthogonalLoop=1;jettySize=auto;html=1;" edge="1" parent="1" source="DwexcD54_K2qV1zHNieI-23">
          <mxGeometry relative="1" as="geometry">
            <mxPoint x="690" y="80" as="targetPoint" />
            <Array as="points">
              <mxPoint x="690" y="255" />
            </Array>
          </mxGeometry>
        </mxCell>
        <mxCell id="DwexcD54_K2qV1zHNieI-23" value="Accessorio" style="rounded=1;whiteSpace=wrap;html=1;" vertex="1" parent="1">
          <mxGeometry x="700" y="230" width="100" height="50" as="geometry" />
        </mxCell>
        <mxCell id="DwexcD54_K2qV1zHNieI-34" style="edgeStyle=orthogonalEdgeStyle;rounded=0;orthogonalLoop=1;jettySize=auto;html=1;" edge="1" parent="1" source="DwexcD54_K2qV1zHNieI-24">
          <mxGeometry relative="1" as="geometry">
            <mxPoint x="690" y="80" as="targetPoint" />
          </mxGeometry>
        </mxCell>
        <mxCell id="DwexcD54_K2qV1zHNieI-24" value="Item" style="rounded=1;whiteSpace=wrap;html=1;" vertex="1" parent="1">
          <mxGeometry x="540" y="230" width="100" height="50" as="geometry" />
        </mxCell>
      </root>
    </mxGraphModel>
  </diagram>
</mxfile>
